<?xml version="1.0" standalone="no"?>
<svg xmlns="http://www.w3.org/2000/svg" viewBox="0 0 99.5 114.892" width="99.5" height="114.892"><polygon fill="none" stroke="#000000" stroke-width="3" points="98,29.473 98,85.419 49.75,113.392 1.5,85.419 1.5,29.473 49.75,1.5"></polygon><g fill="#38803c" color="#38803c" transform="translate(27.75 22.5) scale(0.8148149)"><svg width="54.0" height="54.0" x="0.0" y="0.0" viewBox="0 0 54 54"><path fill="currentColor" fill-rule="evenodd" d="M.855 53.98c-.7.18-1.224-.903-.525-1.264 5.77-2.166 8.392-4.333 9.966-6.679-6.119-4.513-6.818-9.75-1.924-15.888 4.72 2.89 6.294 9.028 3.671 13.902 2.973-3.973 5.07-8.305 7.343-12.638-6.294-5.054-6.993-11.555-2.098-19.316 4.545 3.972 5.245 10.11 2.448 18.775 2.271-4.152 4.545-8.125 8.217-11.554C23.757 10.832 25.155 4.334 32.148 0c1.922 6.138.7 12.457-3.67 18.956 1.747-1.625 7.167-5.235 9.09-5.957 3.845-6.5 9.264-8.305 16.432-5.416-1.922 7.22-9.964 10.47-16.083 6.68-5.769 2.528-9.44 5.957-12.412 9.748 5.07-3.79 11.013-4.874 18.008-3.068-3.847 7.763-10.141 9.026-18.533 3.792-2.973 3.971-5.07 8.665-7.518 13.178 3.847-5.237 9.267-7.041 16.085-5.777-3.497 6.499-8.917 8.484-16.085 5.777C13.792 44.232 9.595 50.37.855 53.98"></path></svg></g><path fill="#38803c" fill-rule="nonzero" d="M4.62 0.11Q8.43 0.11 10.65 1.16Q12.88 2.21 14.03 3.50L14.03 3.50Q14.95 4.56 15.54 5.95Q16.13 7.34 16.13 9.27L16.13 9.27Q16.13 10.70 15.48 12.25Q14.84 13.80 13.80 14.76L13.80 14.76Q12.71 15.79 11.75 16.44Q10.78 17.08 9.14 17.49Q7.50 17.89 4.98 17.89L4.98 17.89Q3.08 17.89 1.54 17.46Q0 17.02 0 15.99L0 15.99Q0 15.57 0.38 15.33Q0.76 15.09 1.20 15.09L1.20 15.09Q1.46 15.09 1.54 15.12L1.54 15.12Q1.74 13.27 1.74 11.20L1.74 11.20Q1.74 8.88 1.62 7.35Q1.51 5.82 1.32 4.31L1.32 4.31Q1.29 4.12 1.19 3.22Q1.09 2.32 1.09 1.40L1.09 1.40Q1.09 0.81 1.68 0.41Q2.27 0 2.88 0L2.88 0Q3.25 0 3.86 0.06L3.86 0.06Q4.37 0.11 4.62 0.11L4.62 0.11ZM4.26 15.26Q4.93 15.37 6.02 15.37L6.02 15.37Q7.87 15.37 9.52 14.60Q11.17 13.83 12.18 12.45Q13.19 11.06 13.19 9.24L13.19 9.24Q13.19 7.34 12.52 5.99Q11.84 4.65 10.44 3.78L10.44 3.78Q9.41 3.14 7.90 2.84Q6.38 2.55 4.26 2.55L4.26 2.55Q4.26 3.22 4.34 4.23L4.34 4.23Q4.34 4.56 4.40 5.40L4.40 5.40Q4.56 8.65 4.56 10.64L4.56 10.64Q4.56 13.52 4.26 15.26L4.26 15.26ZM35.31 0.17Q35.70 0.17 36.27 0.69Q36.85 1.20 36.85 1.57L36.85 1.57Q36.85 3.28 36.74 6.24L36.74 6.24Q36.71 6.97 36.68 7.99Q36.65 9.02 36.65 10.36L36.65 10.36Q36.65 14.62 37.16 16.63L37.16 16.63Q37.13 17.30 36.62 17.60Q36.12 17.89 35.62 17.89L35.62 17.89Q34.50 17.89 34.15 17.11Q33.80 16.32 33.80 14.87L33.80 14.87Q33.80 9.46 33.91 4.93L33.91 4.93Q30.69 8.51 28.90 10.95L28.90 10.95Q28.90 10.95 28.39 11.28L28.39 11.28Q27.92 11.70 27.61 11.70L27.61 11.70Q26.88 11.70 26.40 11.34Q25.93 10.98 25.48 10.28L25.48 10.28L24.14 8.37Q22.74 6.41 22.09 5.40L22.09 5.40Q22.09 7.98 22.34 12.40L22.34 12.40Q22.54 14.95 22.54 16.24L22.54 16.24Q22.54 16.91 22.20 17.37Q21.87 17.84 21.14 17.84L21.14 17.84Q20.41 17.84 19.95 17.56Q19.49 17.28 19.46 16.72L19.46 16.72Q19.49 16.24 19.49 15.15L19.49 15.15Q19.49 12.96 19.35 9.83L19.35 9.83L19.29 8.32L19.24 6.36Q19.21 5.49 19.18 4.33Q19.15 3.16 19.15 1.79L19.15 1.79Q19.15 0.11 20.97 0.11L20.97 0.11Q21.53 0.11 22.11 0.39Q22.68 0.67 22.96 1.20L22.96 1.20Q23.18 2.18 24.61 4.45Q26.04 6.72 27.41 8.71L27.41 8.71Q28.64 7.14 29.43 6.36L29.43 6.36Q30.77 4.98 31.65 3.81Q32.54 2.63 33.57 0.98L33.57 0.98Q33.82 0.64 34.30 0.41Q34.78 0.17 35.31 0.17L35.31 0.17Z" transform="translate(31.172, 74.5)"></path></svg>